<svg width="60" height="60" viewBox="0 0 60 60" fill="none" xmlns="http://www.w3.org/2000/svg">
<path d="M21.1767 30.0003C21.1767 34.8734 25.1271 38.8238 30.0002 38.8238C34.8733 38.8238 38.8237 34.8734 38.8237 30.0003C38.8237 25.1272 34.8733 21.1768 30.0002 21.1768C25.1271 21.1768 21.1767 25.1272 21.1767 30.0003Z" fill="#00CDDA"/>
<path opacity="0.3" d="M10.5881 29.9997C10.5881 40.7205 19.279 49.4114 29.9999 49.4114C40.7207 49.4114 49.4116 40.7205 49.4116 29.9997C49.4116 19.2788 40.7207 10.5879 29.9999 10.5879C19.279 10.5879 10.5881 19.2788 10.5881 29.9997Z" fill="#00CDDA"/>
<path opacity="0.2" d="M1.72853e-06 30C1.72853e-06 46.5685 13.4315 60 30 60C46.5685 60 60 46.5685 60 30C60 13.4315 46.5685 0 30 0C13.4315 0 1.72853e-06 13.4315 1.72853e-06 30Z" fill="#00CDDA"/>
</svg>
