<svg width="259" height="56" viewBox="0 0 259 56" fill="none" xmlns="http://www.w3.org/2000/svg">
<path d="M0.5 21.5V55.5H242.307L258.5 40.7788V20.5V0.5H0.5V21.5Z" fill="#FF5732" stroke="#FF5732"/>
<path d="M56.8744 32.096C56.1864 32.096 55.7037 31.9227 55.4264 31.576C55.1544 31.2293 55.0184 30.6293 55.0184 29.776C55.0184 29.232 55.2424 28.96 55.6904 28.96C56.1384 28.96 56.3624 29.232 56.3624 29.776V30.064C56.3624 30.3467 56.3997 30.5333 56.4744 30.624C56.5544 30.7093 56.725 30.752 56.9864 30.752H59.9144C60.2984 30.752 60.6424 30.6747 60.9464 30.52C61.2504 30.3653 61.4904 30.1573 61.6664 29.896C61.8424 29.6293 61.9304 29.3333 61.9304 29.008C61.9304 28.6987 61.8477 28.4267 61.6824 28.192C61.517 27.952 61.2877 27.7653 60.9944 27.632C60.701 27.4933 60.3624 27.424 59.9784 27.424H58.6024C58.0477 27.424 57.7704 27.2 57.7704 26.752C57.7704 26.304 58.0477 26.08 58.6024 26.08H59.9784C60.373 26.08 60.717 26.0213 61.0104 25.904C61.3037 25.7867 61.5304 25.6213 61.6904 25.408C61.8504 25.1947 61.9304 24.944 61.9304 24.656C61.9304 24.3467 61.845 24.0747 61.6744 23.84C61.5037 23.6 61.2664 23.4133 60.9624 23.28C60.6637 23.1413 60.3144 23.072 59.9144 23.072H56.9864C56.725 23.072 56.5544 23.1173 56.4744 23.208C56.3997 23.2933 56.3624 23.4773 56.3624 23.76V24.048C56.3624 24.592 56.1384 24.864 55.6904 24.864C55.2424 24.864 55.0184 24.592 55.0184 24.048C55.0184 23.1947 55.1544 22.5947 55.4264 22.248C55.7037 21.9013 56.1864 21.728 56.8744 21.728H60.0264C60.677 21.728 61.245 21.8453 61.7304 22.08C62.2157 22.3147 62.5944 22.6427 62.8664 23.064C63.1384 23.4853 63.2744 23.9787 63.2744 24.544C63.2744 25.0133 63.189 25.4347 63.0184 25.808C62.8477 26.176 62.589 26.4987 62.2424 26.776C62.589 27.0747 62.8477 27.4213 63.0184 27.816C63.189 28.2107 63.2744 28.6453 63.2744 29.12C63.2744 29.696 63.133 30.208 62.8504 30.656C62.573 31.104 62.189 31.456 61.6984 31.712C61.213 31.968 60.6557 32.096 60.0264 32.096H56.8744ZM71.9791 32.208C71.8458 32.208 71.7365 32.168 71.6511 32.088C71.5658 32.0133 71.5018 31.8507 71.4591 31.6C71.4218 31.3493 71.4031 30.9653 71.4031 30.448L71.5791 30.864C71.2431 31.328 70.8218 31.6507 70.3151 31.832C69.8138 32.008 69.2218 32.096 68.5391 32.096H67.0511C66.4698 32.096 65.9951 31.904 65.6271 31.52C65.2645 31.1307 65.0831 30.544 65.0831 29.76C65.0831 29.2693 65.1631 28.856 65.3231 28.52C65.4831 28.1787 65.7311 27.904 66.0671 27.696C66.4031 27.4827 66.8325 27.328 67.3551 27.232C67.8778 27.136 68.5018 27.088 69.2271 27.088H71.9311L71.3231 27.632V26.448C71.3231 26.2133 71.2831 26.0587 71.2031 25.984C71.1285 25.9093 70.9605 25.872 70.6991 25.872H68.4431C67.9045 25.872 67.4911 25.8853 67.2031 25.912C66.9205 25.9387 66.7231 25.992 66.6111 26.072C66.4991 26.1467 66.4378 26.256 66.4271 26.4C66.4058 26.6773 66.3551 26.8827 66.2751 27.016C66.1951 27.1493 66.0218 27.216 65.7551 27.216C65.3071 27.216 65.0831 26.928 65.0831 26.352C65.0831 25.7173 65.3471 25.256 65.8751 24.968C66.4031 24.6747 67.2218 24.528 68.3311 24.528H70.8111C71.4938 24.528 71.9738 24.6907 72.2511 25.016C72.5285 25.3413 72.6671 25.904 72.6671 26.704V31.44C72.6671 31.952 72.4378 32.208 71.9791 32.208ZM67.0991 30.816H68.5391C69.5471 30.816 70.2618 30.6133 70.6831 30.208C71.1098 29.7973 71.3231 29.152 71.3231 28.272L71.4191 28.368H69.2271C68.5231 28.368 67.9658 28.4027 67.5551 28.472C67.1498 28.536 66.8591 28.664 66.6831 28.856C66.5125 29.048 66.4271 29.3333 66.4271 29.712C66.4271 30.0533 66.4858 30.3227 66.6031 30.52C66.7258 30.7173 66.8911 30.816 67.0991 30.816ZM78.8871 32.096C77.8685 32.096 77.0551 32.0027 76.4471 31.816C75.8445 31.624 75.4125 31.3093 75.1511 30.872C74.8898 30.4347 74.7591 29.8453 74.7591 29.104V24.784C74.7591 24.176 74.8658 23.6747 75.0791 23.28C75.2925 22.88 75.6205 22.5707 76.0631 22.352C76.5111 22.128 77.0845 21.9733 77.7831 21.888C78.2418 21.8293 78.7965 21.7893 79.4471 21.768C80.1031 21.7413 80.7911 21.728 81.5111 21.728C82.0658 21.728 82.3431 21.9573 82.3431 22.416C82.3431 22.64 82.2658 22.8053 82.1111 22.912C81.9565 23.0187 81.7351 23.072 81.4471 23.072C81.1805 23.072 80.9378 23.072 80.7191 23.072C80.5058 23.072 80.3058 23.0747 80.1191 23.08C79.9325 23.08 79.7458 23.0827 79.5591 23.088C79.3778 23.088 79.1858 23.0933 78.9831 23.104C78.4071 23.1307 77.9031 23.1867 77.4711 23.272C77.0445 23.352 76.7111 23.4907 76.4711 23.688C76.2365 23.88 76.1191 24.16 76.1191 24.528H79.6551C80.5938 24.528 81.3431 24.624 81.9031 24.816C82.4685 25.0027 82.8738 25.312 83.1191 25.744C83.3698 26.176 83.4951 26.752 83.4951 27.472V29.152C83.4951 29.8827 83.3645 30.464 83.1031 30.896C82.8418 31.3227 82.4098 31.6293 81.8071 31.816C81.2045 32.0027 80.3911 32.096 79.3671 32.096H78.8871ZM78.8871 30.752H79.3671C80.1671 30.752 80.7645 30.7147 81.1591 30.64C81.5591 30.56 81.8231 30.4027 81.9511 30.168C82.0845 29.928 82.1511 29.5733 82.1511 29.104V27.52C82.1511 27.0507 82.0898 26.6987 81.9671 26.464C81.8445 26.2293 81.6045 26.072 81.2471 25.992C80.8898 25.912 80.3591 25.872 79.6551 25.872H76.1031V29.104C76.1031 29.5733 76.1671 29.928 76.2951 30.168C76.4285 30.4027 76.6925 30.56 77.0871 30.64C77.4871 30.7147 78.0871 30.752 78.8871 30.752ZM86.135 35.008C85.6977 35.008 85.479 34.736 85.479 34.192V25.184C85.479 24.672 85.7083 24.416 86.167 24.416C86.407 24.416 86.5723 24.4907 86.663 24.64C86.759 24.7893 86.807 25.0453 86.807 25.408V25.888L86.567 25.568C86.903 25.2 87.327 24.936 87.839 24.776C88.3563 24.6107 88.951 24.528 89.623 24.528H90.087C91.111 24.528 91.9243 24.6213 92.527 24.808C93.1297 24.9947 93.5617 25.304 93.823 25.736C94.0843 26.1627 94.215 26.7413 94.215 27.472V29.152C94.215 29.8827 94.0843 30.464 93.823 30.896C93.5617 31.3227 93.1323 31.6293 92.535 31.816C91.943 32.0027 91.143 32.096 90.135 32.096H86.823V34.192C86.823 34.736 86.5937 35.008 86.135 35.008ZM86.823 30.752H90.135C90.9243 30.752 91.5137 30.7147 91.903 30.64C92.2923 30.56 92.551 30.4027 92.679 30.168C92.807 29.928 92.871 29.5733 92.871 29.104V27.52C92.871 27.0453 92.8043 26.6907 92.671 26.456C92.543 26.2213 92.279 26.0667 91.879 25.992C91.4843 25.912 90.887 25.872 90.087 25.872H89.623C88.6577 25.872 87.9483 26.0693 87.495 26.464C87.047 26.8533 86.823 27.4613 86.823 28.288V30.752ZM102.87 32.208C102.736 32.208 102.627 32.168 102.542 32.088C102.456 32.0133 102.392 31.8507 102.35 31.6C102.312 31.3493 102.294 30.9653 102.294 30.448L102.47 30.864C102.134 31.328 101.712 31.6507 101.206 31.832C100.704 32.008 100.112 32.096 99.4298 32.096H97.9418C97.3604 32.096 96.8858 31.904 96.5178 31.52C96.1551 31.1307 95.9738 30.544 95.9738 29.76C95.9738 29.2693 96.0538 28.856 96.2138 28.52C96.3738 28.1787 96.6218 27.904 96.9578 27.696C97.2938 27.4827 97.7231 27.328 98.2458 27.232C98.7684 27.136 99.3924 27.088 100.118 27.088H102.822L102.214 27.632V26.448C102.214 26.2133 102.174 26.0587 102.094 25.984C102.019 25.9093 101.851 25.872 101.59 25.872H99.3338C98.7951 25.872 98.3818 25.8853 98.0938 25.912C97.8111 25.9387 97.6138 25.992 97.5018 26.072C97.3898 26.1467 97.3284 26.256 97.3178 26.4C97.2964 26.6773 97.2458 26.8827 97.1658 27.016C97.0858 27.1493 96.9124 27.216 96.6458 27.216C96.1978 27.216 95.9738 26.928 95.9738 26.352C95.9738 25.7173 96.2378 25.256 96.7658 24.968C97.2938 24.6747 98.1124 24.528 99.2218 24.528H101.702C102.384 24.528 102.864 24.6907 103.142 25.016C103.419 25.3413 103.558 25.904 103.558 26.704V31.44C103.558 31.952 103.328 32.208 102.87 32.208ZM97.9898 30.816H99.4298C100.438 30.816 101.152 30.6133 101.574 30.208C102 29.7973 102.214 29.152 102.214 28.272L102.31 28.368H100.118C99.4138 28.368 98.8564 28.4027 98.4458 28.472C98.0404 28.536 97.7498 28.664 97.5738 28.856C97.4031 29.048 97.3178 29.3333 97.3178 29.712C97.3178 30.0533 97.3764 30.3227 97.4938 30.52C97.6164 30.7173 97.7818 30.816 97.9898 30.816ZM108.626 32.208C108.135 32.208 107.89 31.968 107.89 31.488V25.872H105.586C105.063 25.872 104.802 25.648 104.802 25.2C104.802 24.752 105.063 24.528 105.586 24.528H111.682C112.204 24.528 112.466 24.752 112.466 25.2C112.466 25.648 112.204 25.872 111.682 25.872H109.394V31.488C109.394 31.7067 109.324 31.88 109.186 32.008C109.047 32.1413 108.86 32.208 108.626 32.208ZM113.776 32.096V25.2C113.776 24.6773 114 24.416 114.448 24.416C114.896 24.416 115.12 24.6773 115.12 25.2V27.52H118.56C119.174 27.52 119.691 27.6107 120.112 27.792C120.539 27.968 120.864 28.2267 121.088 28.568C121.312 28.904 121.424 29.3173 121.424 29.808C121.424 30.2933 121.312 30.7067 121.088 31.048C120.87 31.384 120.547 31.64 120.12 31.816C119.694 31.992 119.174 32.0853 118.56 32.096H113.776ZM115.12 30.752H118.416C118.859 30.752 119.246 30.6987 119.576 30.592C119.912 30.48 120.08 30.2453 120.08 29.888C120.08 29.5947 120.016 29.376 119.888 29.232C119.766 29.0827 119.582 28.984 119.336 28.936C119.091 28.888 118.784 28.864 118.416 28.864H115.12V30.752ZM128.698 32.208C128.25 32.208 128.026 31.952 128.026 31.44V25.2C128.026 24.6773 128.239 24.416 128.666 24.416C129.135 24.416 129.37 24.6773 129.37 25.2V27.424H134.778V25.2C134.778 24.6773 135.002 24.416 135.45 24.416C135.898 24.416 136.122 24.6773 136.122 25.2V31.44C136.122 31.952 135.898 32.208 135.45 32.208C135.002 32.208 134.778 31.952 134.778 31.44V28.768H129.37V31.44C129.37 31.952 129.146 32.208 128.698 32.208ZM144.995 32.208C144.861 32.208 144.752 32.168 144.667 32.088C144.581 32.0133 144.517 31.8507 144.475 31.6C144.437 31.3493 144.419 30.9653 144.419 30.448L144.595 30.864C144.259 31.328 143.837 31.6507 143.331 31.832C142.829 32.008 142.237 32.096 141.555 32.096H140.067C139.485 32.096 139.011 31.904 138.643 31.52C138.28 31.1307 138.099 30.544 138.099 29.76C138.099 29.2693 138.179 28.856 138.339 28.52C138.499 28.1787 138.747 27.904 139.083 27.696C139.419 27.4827 139.848 27.328 140.371 27.232C140.893 27.136 141.517 27.088 142.243 27.088H144.947L144.339 27.632V26.448C144.339 26.2133 144.299 26.0587 144.219 25.984C144.144 25.9093 143.976 25.872 143.715 25.872H141.459C140.92 25.872 140.507 25.8853 140.219 25.912C139.936 25.9387 139.739 25.992 139.627 26.072C139.515 26.1467 139.453 26.256 139.443 26.4C139.421 26.6773 139.371 26.8827 139.291 27.016C139.211 27.1493 139.037 27.216 138.771 27.216C138.323 27.216 138.099 26.928 138.099 26.352C138.099 25.7173 138.363 25.256 138.891 24.968C139.419 24.6747 140.237 24.528 141.347 24.528H143.827C144.509 24.528 144.989 24.6907 145.267 25.016C145.544 25.3413 145.683 25.904 145.683 26.704V31.44C145.683 31.952 145.453 32.208 144.995 32.208ZM140.115 30.816H141.555C142.563 30.816 143.277 30.6133 143.699 30.208C144.125 29.7973 144.339 29.152 144.339 28.272L144.435 28.368H142.243C141.539 28.368 140.981 28.4027 140.571 28.472C140.165 28.536 139.875 28.664 139.699 28.856C139.528 29.048 139.443 29.3333 139.443 29.712C139.443 30.0533 139.501 30.3227 139.619 30.52C139.741 30.7173 139.907 30.816 140.115 30.816ZM154.031 25.872H149.759C149.503 25.872 149.335 25.9147 149.255 26C149.175 26.08 149.135 26.256 149.135 26.528V31.44C149.135 31.952 148.911 32.208 148.463 32.208C148.015 32.208 147.791 31.952 147.791 31.44V26.704C147.791 25.904 147.929 25.3413 148.207 25.016C148.484 24.6907 148.964 24.528 149.647 24.528H154.031C154.575 24.528 154.847 24.752 154.847 25.2C154.847 25.648 154.575 25.872 154.031 25.872ZM156.791 35.008C156.354 35.008 156.135 34.736 156.135 34.192V25.184C156.135 24.672 156.365 24.416 156.823 24.416C157.063 24.416 157.229 24.4907 157.319 24.64C157.415 24.7893 157.463 25.0453 157.463 25.408V25.888L157.223 25.568C157.559 25.2 157.983 24.936 158.495 24.776C159.013 24.6107 159.607 24.528 160.279 24.528H160.743C161.767 24.528 162.581 24.6213 163.183 24.808C163.786 24.9947 164.218 25.304 164.479 25.736C164.741 26.1627 164.871 26.7413 164.871 27.472V29.152C164.871 29.8827 164.741 30.464 164.479 30.896C164.218 31.3227 163.789 31.6293 163.191 31.816C162.599 32.0027 161.799 32.096 160.791 32.096H157.479V34.192C157.479 34.736 157.25 35.008 156.791 35.008ZM157.479 30.752H160.791C161.581 30.752 162.17 30.7147 162.559 30.64C162.949 30.56 163.207 30.4027 163.335 30.168C163.463 29.928 163.527 29.5733 163.527 29.104V27.52C163.527 27.0453 163.461 26.6907 163.327 26.456C163.199 26.2213 162.935 26.0667 162.535 25.992C162.141 25.912 161.543 25.872 160.743 25.872H160.279C159.314 25.872 158.605 26.0693 158.151 26.464C157.703 26.8533 157.479 27.4613 157.479 28.288V30.752ZM173.526 32.208C173.393 32.208 173.283 32.168 173.198 32.088C173.113 32.0133 173.049 31.8507 173.006 31.6C172.969 31.3493 172.95 30.9653 172.95 30.448L173.126 30.864C172.79 31.328 172.369 31.6507 171.862 31.832C171.361 32.008 170.769 32.096 170.086 32.096H168.598C168.017 32.096 167.542 31.904 167.174 31.52C166.811 31.1307 166.63 30.544 166.63 29.76C166.63 29.2693 166.71 28.856 166.87 28.52C167.03 28.1787 167.278 27.904 167.614 27.696C167.95 27.4827 168.379 27.328 168.902 27.232C169.425 27.136 170.049 27.088 170.774 27.088H173.478L172.87 27.632V26.448C172.87 26.2133 172.83 26.0587 172.75 25.984C172.675 25.9093 172.507 25.872 172.246 25.872H169.99C169.451 25.872 169.038 25.8853 168.75 25.912C168.467 25.9387 168.27 25.992 168.158 26.072C168.046 26.1467 167.985 26.256 167.974 26.4C167.953 26.6773 167.902 26.8827 167.822 27.016C167.742 27.1493 167.569 27.216 167.302 27.216C166.854 27.216 166.63 26.928 166.63 26.352C166.63 25.7173 166.894 25.256 167.422 24.968C167.95 24.6747 168.769 24.528 169.878 24.528H172.358C173.041 24.528 173.521 24.6907 173.798 25.016C174.075 25.3413 174.214 25.904 174.214 26.704V31.44C174.214 31.952 173.985 32.208 173.526 32.208ZM168.646 30.816H170.086C171.094 30.816 171.809 30.6133 172.23 30.208C172.657 29.7973 172.87 29.152 172.87 28.272L172.966 28.368H170.774C170.07 28.368 169.513 28.4027 169.102 28.472C168.697 28.536 168.406 28.664 168.23 28.856C168.059 29.048 167.974 29.3333 167.974 29.712C167.974 30.0533 168.033 30.3227 168.15 30.52C168.273 30.7173 168.438 30.816 168.646 30.816ZM176.082 33.568C175.634 33.568 175.41 33.296 175.41 32.752V32C175.41 31.152 175.805 30.736 176.594 30.752H177.01L176.29 31.072C177.458 29.28 178.034 27.0987 178.018 24.528H183.058V30.752H183.49C184.205 30.752 184.562 31.168 184.562 32V32.752C184.562 33.296 184.338 33.568 183.89 33.568C183.442 33.568 183.218 33.296 183.218 32.752V32.096H176.754V32.752C176.754 33.296 176.53 33.568 176.082 33.568ZM178.026 30.752H181.666V25.872H179.474C179.41 27.616 178.927 29.2427 178.026 30.752ZM187.786 35.376C187.365 35.376 187.016 35.304 186.738 35.16C186.466 35.0213 186.264 34.8053 186.13 34.512C185.997 34.2187 185.93 33.8507 185.93 33.408C185.93 33.12 185.986 32.8987 186.098 32.744C186.216 32.5893 186.384 32.512 186.602 32.512C186.826 32.512 186.994 32.5787 187.106 32.712C187.218 32.8453 187.274 33.04 187.274 33.296C187.274 33.5947 187.314 33.792 187.394 33.888C187.48 33.984 187.648 34.032 187.898 34.032H192.842C193.056 34.032 193.189 34.0027 193.242 33.944C193.296 33.8853 193.322 33.7333 193.322 33.488V31.392C192.656 31.8613 191.722 32.096 190.522 32.096H190.058C189.04 32.096 188.226 32.0027 187.618 31.816C187.016 31.6293 186.584 31.3227 186.322 30.896C186.061 30.464 185.93 29.8827 185.93 29.152V25.184C185.93 24.672 186.154 24.416 186.602 24.416C187.05 24.416 187.274 24.672 187.274 25.184V29.104C187.274 29.5733 187.338 29.928 187.466 30.168C187.6 30.4027 187.864 30.56 188.258 30.64C188.658 30.7147 189.258 30.752 190.058 30.752H190.522C191.461 30.752 192.162 30.5493 192.626 30.144C193.09 29.7333 193.322 29.1147 193.322 28.288V25.184C193.322 24.672 193.546 24.416 193.994 24.416C194.442 24.416 194.666 24.672 194.666 25.184V33.232C194.666 34.0107 194.538 34.5627 194.282 34.888C194.026 35.2133 193.584 35.376 192.954 35.376H187.786Z" fill="black"/>
</svg>
